<svg xmlns="http://www.w3.org/2000/svg" width="10.778" height="16.766" viewBox="0 0 10.778 16.766">
  <defs>
    <style>
      .cls-1 {
        fill: #fff;
      }
    </style>
  </defs>
  <path id="Path_3" data-name="Path 3" class="cls-1" d="M281.8,111.4a5.4,5.4,0,0,0,3.6,1.368,5.509,5.509,0,0,0,.612-.034,5.391,5.391,0,0,0,1.4-10.352l-.449,1.11a4.193,4.193,0,0,1-1.082,8.051A4.145,4.145,0,0,1,282.6,110.5a4.193,4.193,0,0,1,1.975-7.239,1.778,1.778,0,0,0,1.416-1.753v-.123h.6a3,3,0,0,0,2.994-2.994v-.6h-1.8a2.964,2.964,0,0,0-1.8.614V96h-1.2v5.513a.578.578,0,0,1-.45.578A5.39,5.39,0,0,0,281.8,111.4Zm5.985-12.4h.5a1.8,1.8,0,0,1-1.694,1.2h-.5A1.8,1.8,0,0,1,287.785,98.994Zm0,0" transform="translate(-280 -96)"/>
</svg>
