<svg xmlns="http://www.w3.org/2000/svg" width="37.127" height="37.127" viewBox="0 0 37.127 37.127">
  <defs>
    <style>
      .cls-1 {
        fill: #fff;
      }
    </style>
  </defs>
  <path id="Path_1" data-name="Path 1" class="cls-1" d="M34.732,8.384V0H23.354a6.624,6.624,0,0,0-4.791,2.067A6.624,6.624,0,0,0,13.773,0H2.4V8.384H0V34.732H14.42a4.782,4.782,0,0,0,8.288,0h14.42V8.384ZM3.593,1.2h10.18a5.413,5.413,0,0,1,4.192,2.014V16.168h1.2V3.212A5.413,5.413,0,0,1,23.354,1.2h10.18V26.348H31.023a16.5,16.5,0,0,0-11.861,5V17.366h-1.2V31.353a16.5,16.5,0,0,0-11.861-5H3.593Zm1.2,26.348H6.1a15.3,15.3,0,0,1,10,3.7,23.412,23.412,0,0,0-7.691-1.31H4.791Zm27.546,0v2.4H28.71a23.4,23.4,0,0,0-7.692,1.31,15.3,15.3,0,0,1,10.005-3.706Zm3.593,5.988H21.968l-.162.341a3.586,3.586,0,0,1-6.485,0l-.163-.341H1.2V9.581H2.4V27.546h1.2v3.593H8.417A22.2,22.2,0,0,1,18.3,33.471l.268.134.268-.134a22.207,22.207,0,0,1,9.879-2.332h4.824V27.546h1.2V9.581h1.2Zm0,0" transform="translate(0 0)"/>
</svg>
