<svg xmlns="http://www.w3.org/2000/svg" width="8.384" height="21.558" viewBox="0 0 8.384 21.558">
  <defs>
    <style>
      .cls-1 {
        fill: #fff;
      }
    </style>
  </defs>
  <path id="Path_2" data-name="Path 2" class="cls-1" d="M90.107,59.956a2.157,2.157,0,0,0,4.169,0l1.965-7.37h0a4.2,4.2,0,0,0,.141-1.079v-.128a4.194,4.194,0,0,0-2.344-3.757l.808-3.639A1.8,1.8,0,0,0,93.094,41.8h-.3V41.75a1.751,1.751,0,1,0-3.5.134l.468,6.084A4.187,4.187,0,0,0,88,51.378v.128a4.219,4.219,0,0,0,.141,1.08Zm5.079-8.578v.128a3.033,3.033,0,0,1-.1.771l-1.965,7.37a.961.961,0,0,1-1.856,0l-.768-2.88h1.7v-1.2H90.177l-.319-1.2h1.137v-1.2H89.538l-.239-.9a2.978,2.978,0,0,1-.059-.3h2.952v-1.2H89.258a2.994,2.994,0,0,1,5.928.6Zm-2.092-8.384a.6.6,0,0,1,.584.729l-.784,3.527-.1-.016V42.994Zm-2.606-1.2a.553.553,0,1,1,1.1-.043v5.484a4.177,4.177,0,0,0-.674.151Zm0,0" transform="translate(-88 -40)"/>
</svg>
